<svg width="841" height="177" viewBox="0 0 841 177" fill="none" xmlns="http://www.w3.org/2000/svg">
<rect x="0.818665" width="177.994" height="176.875" rx="22.5259" fill="#ACFF86"/>
<path d="M105.886 133.055C101.588 136.166 97.4311 139.191 93.2303 142.248C93.2483 142.294 93.0683 142.046 93.0658 141.795C92.9853 133.635 92.8323 125.451 94.9209 117.475C95.948 113.554 98.1779 110.36 101.407 107.75C107.677 102.682 114.668 98.9081 122.247 95.2473C122.247 98.5033 122.436 101.407 122.202 104.276C121.867 108.364 121.536 112.496 120.642 116.482C119.015 123.737 113.757 128.191 107.745 131.905C107.172 132.259 106.599 132.615 105.886 133.055Z" fill="#7519EB"/>
<path d="M83.8371 140.557C79.5091 137.465 75.4664 134.196 71.0445 131.564C62.1977 126.299 57.8322 118.57 57.448 108.466C57.2867 104.223 57.4211 99.9679 57.4211 95.4417C64.3747 98.6785 70.8043 102.255 76.7844 106.71C82.9648 111.315 85.5981 117.54 85.811 124.949C85.9766 130.71 85.8441 136.479 85.8441 142.488C85.2558 141.923 84.6034 141.296 83.8371 140.557Z" fill="#A259FF"/>
<path d="M57.3134 62.5275C57.3124 61.2701 57.3124 60.2292 57.3124 58.9949C57.9186 59.128 58.3684 59.1259 58.7103 59.317C64.1317 62.3477 69.6342 65.2483 74.9261 68.4921C81.5741 72.5671 85.1166 78.7691 85.7096 86.471C86.192 92.7355 86.2346 99.0338 86.4956 105.933C84.1792 103.965 82.4536 102.251 80.4884 100.88C76.0712 97.7985 71.4609 94.9923 67.0658 91.8811C61.3117 87.8079 58.5147 81.9569 57.8767 75.0808C57.4969 70.9864 57.4894 66.8574 57.3134 62.5275Z" fill="#A259FF"/>
<path d="M95.1511 80.0114C97.0511 77.0669 98.5147 73.9038 100.83 71.595C106.756 65.6859 114.459 62.5268 122.281 58.6152C122.281 60.4031 122.364 61.7895 122.266 63.1629C121.915 68.0829 121.788 73.0419 121.049 77.906C119.811 86.0613 114.436 91.2949 107.631 95.2147C102.604 98.1106 97.8022 101.256 93.8231 105.532C93.6943 105.67 93.4626 105.713 92.798 106.029C93.0956 99.5474 93.2786 93.3651 93.7136 87.2005C93.8802 84.84 94.6226 82.5202 95.1511 80.0114Z" fill="#A259FF"/>
<path d="M93.558 68.8714C92.218 70.7499 90.972 72.4932 89.5157 74.5307C85.6241 68.2907 81.1244 62.6647 81.375 55.2064C81.4752 52.225 82.3925 49.1558 83.505 46.3516C85.0585 42.4358 87.1435 38.7307 89.001 34.9355C89.3326 34.7528 89.6641 34.5701 89.9957 34.3875C90.3321 35.0616 90.6443 35.749 91.0087 36.4076C94.0525 41.9089 97.1669 47.3531 98.0796 53.7553C98.5699 57.194 97.6388 60.2781 96.3887 63.3235C95.6233 65.1881 94.5738 66.936 93.558 68.8714Z" fill="#A259FF"/>
<path d="M257.77 146.263C251.533 146.263 247.713 142.443 247.713 135.817V42.8919C247.713 36.3435 251.533 32.4456 257.77 32.4456H311.56C317.095 32.4456 320.759 35.7198 320.759 40.9429C320.759 46.1661 317.017 49.4403 311.56 49.4403H267.826V82.65H307.506C312.807 82.65 316.316 85.7683 316.316 90.8355C316.316 95.9027 312.807 99.021 307.506 99.021H267.826V135.817C267.826 142.443 264.084 146.263 257.77 146.263ZM347.386 146.263C331.405 146.263 319.789 136.207 319.789 121.317C319.789 106.661 331.093 97.8516 351.206 96.6043L373.112 95.357V89.4323C373.112 80.779 367.265 75.7898 357.676 75.7898C350.115 75.7898 345.203 78.3624 340.37 85.4565C338.343 88.107 335.771 89.3543 332.496 89.3543C327.741 89.3543 324.311 86.236 324.311 81.5586C324.311 79.7656 324.779 78.0505 325.636 76.2575C329.846 66.6688 342.631 60.5881 358.456 60.5881C378.959 60.5881 392.289 71.4242 392.289 88.029V136.752C392.289 142.989 388.314 146.497 382.857 146.497C377.556 146.497 373.892 143.301 373.58 137.532V131.763H373.19C368.435 140.728 358.066 146.263 347.386 146.263ZM353.311 131.607C364.225 131.607 373.112 124.279 373.112 114.301V107.986L353.935 109.155C344.58 109.779 339.201 113.989 339.201 120.537C339.201 127.319 344.892 131.607 353.311 131.607ZM412.836 146.497C406.989 146.497 403.169 142.677 403.169 136.285V70.4887C403.169 64.408 406.911 60.6661 412.446 60.6661C417.825 60.6661 421.645 64.408 421.645 70.4887V76.8032H422.035C424.296 67.1365 431.468 60.9 439.731 60.9C442.771 60.9 445.11 61.6795 446.591 63.0048C448.384 64.486 449.32 66.8247 449.32 70.0209C449.32 73.0613 448.384 75.322 446.435 76.8812C444.564 78.5183 441.68 79.3758 437.86 79.4538C426.79 79.5317 422.58 86.4699 422.58 96.5264V136.285C422.58 142.677 418.683 146.497 412.836 146.497ZM462.928 146.497C457.081 146.497 453.261 142.755 453.261 136.285V70.5666C453.261 64.2521 457.081 60.6661 462.538 60.6661C467.995 60.6661 471.893 64.2521 471.893 70.5666V76.6473H472.283C475.869 67.0586 484.6 60.7441 495.826 60.7441C507.519 60.7441 515.861 66.7467 518.901 77.3489H519.369C523.345 67.1365 533.167 60.7441 545.095 60.7441C561.388 60.7441 572.068 71.736 572.068 88.2629V136.285C572.068 142.755 568.17 146.497 562.401 146.497C556.554 146.497 552.657 142.755 552.657 136.285V93.0183C552.657 82.8839 547.356 77.115 537.845 77.115C528.49 77.115 522.097 83.9753 522.097 93.8758V136.285C522.097 142.755 518.433 146.497 512.665 146.497C506.818 146.497 503.232 142.755 503.232 136.285V92.0049C503.232 82.8059 497.619 77.115 488.576 77.115C479.221 77.115 472.673 84.3651 472.673 94.3436V136.285C472.673 142.755 468.697 146.497 462.928 146.497Z" fill="#7519EB"/>
<path d="M631.047 146.731C600.41 146.731 580.921 124.045 580.921 88.4188C580.921 53.1822 600.488 30.6526 631.047 30.6526C651.784 30.6526 668.934 42.658 674.547 60.1204C675.171 61.8355 675.483 63.5505 675.483 64.8758C675.483 67.8381 673.612 69.7871 670.649 69.7871C668.077 69.7871 666.206 68.3838 665.036 65.2656C660.671 50.1419 646.95 40.5532 631.047 40.5532C607.192 40.5532 591.835 59.1849 591.835 88.4188C591.835 118.043 607.192 136.83 631.125 136.83C647.73 136.83 661.061 128.567 665.27 113.755C666.362 111.104 667.843 109.857 670.26 109.857C673.144 109.857 675.093 111.884 675.093 114.768C675.093 116.639 674.703 118.432 673.768 120.537C667.687 136.752 652.096 146.731 631.047 146.731ZM709.905 146.263C693.924 146.263 683.01 136.674 683.01 122.486C683.01 108.688 693.301 100.19 712.088 98.943L737.424 97.3839V90.3678C737.424 78.6742 730.018 71.658 717.389 71.658C706.865 71.658 699.615 75.9457 695.639 85.8462C694.704 87.7172 693.301 88.6527 691.274 88.6527C688.545 88.6527 686.674 86.7817 686.674 83.9753C686.674 82.4161 687.22 80.5452 688.077 78.7521C692.287 69.0855 703.591 62.5371 717.623 62.5371C736.177 62.5371 747.715 72.9054 747.715 89.4323V141.04C747.715 144.158 745.688 146.263 742.803 146.263C739.919 146.263 737.892 144.158 737.892 141.04V129.502H737.658C733.137 139.559 721.989 146.263 709.905 146.263ZM712.01 137.376C726.199 137.376 737.424 127.319 737.424 114.457V105.491L713.336 107.129C700.551 107.986 693.457 113.599 693.457 122.33C693.457 131.373 701.096 137.376 712.01 137.376ZM765.377 146.263C762.336 146.263 760.231 144.002 760.231 140.728V67.7602C760.231 64.6419 762.18 62.5371 765.065 62.5371C767.949 62.5371 769.976 64.6419 769.976 67.7602V78.2844H770.21C772.938 68.7736 780.89 62.5371 789.777 62.5371C792.584 62.5371 794.844 63.0828 796.482 64.2521C797.651 65.1096 798.352 66.357 798.352 67.9941C798.352 69.6312 797.729 70.8785 796.482 71.658C795 72.4376 793.051 72.3597 789.465 72.3597C776.68 72.3597 770.522 82.1823 770.522 94.4995V140.728C770.522 144.002 768.417 146.263 765.377 146.263ZM808.686 126.618V72.4376H800.501C797.461 72.4376 795.824 70.8785 795.824 68.15C795.824 65.4215 797.461 63.8623 800.501 63.8623H808.686V47.8032C808.686 44.451 810.791 42.2682 813.832 42.2682C816.872 42.2682 818.977 44.451 818.977 47.8032V63.8623H830.982C834.023 63.8623 835.738 65.4215 835.738 68.15C835.738 70.8785 834.023 72.4376 830.982 72.4376H818.977V124.591C818.977 132.543 821.783 136.051 829.189 136.362L831.45 136.44C834.802 136.674 836.439 138.078 836.439 140.572C836.439 143.69 834.646 145.405 829.111 145.405H827.006C814.689 145.405 808.686 139.403 808.686 126.618Z" fill="#0BCE83"/>
</svg>
